<svg width="88" height="77" viewBox="0 0 88 77" fill="none" xmlns="http://www.w3.org/2000/svg">
<path d="M20.1 74.3996C14 67.2996 13 56.4996 17.6 47.9996C24.7 34.8996 41.4 27.9996 62.8 29.2996C68 29.5996 72.4 30.0996 72.7 30.3996C73 30.6996 71.6 33.7996 69.6 37.3996L66 43.8996L57.5 43.2996C40.6 42.0996 26.4 47.5996 21.4 57.1996C19.6 60.6996 19.6 69.0996 21.4 73.4996C23.2 77.6996 23 77.7996 20.1 74.3996Z" fill="#EF648A"/>
<path d="M27.6 72.9C23.9 63.8 30.4 56.3 43.7 54.1C50.8 53 61 53.7 61 55.4C61 56 60.3 57.6 59.4 58.8C58 60.8 57.1 61 48.2 61C40.3 61 37.9 61.4 35.3 63C30.6 65.8 28.6 69.3 29.3 73.5C30 78.1 29.6 77.9 27.6 72.9Z" fill="#EF648A"/>
<path d="M9.70001 71.7998C4.50001 66.5998 2.10001 61.5998 1.00001 54.1998C-0.799987 41.1998 3.20001 30.4998 13.9 19.9998C24.2 9.79981 38.8 3.19981 55.9 0.899809C63.9 -0.200191 78.5 0.199809 85.2 1.59981L87.9 2.19981L85 7.89981C79.8 18.0998 81.3 17.3998 64.4 17.0998C51.8 16.9998 48.3 17.1998 42 18.9998C17.9 25.7998 3.50001 43.8998 7.90001 61.6998C8.60001 64.2998 10.5 68.5998 12.1 71.2998C13.7 73.8998 14.7 75.9998 14.5 75.9998C14.2 75.9998 12 74.0998 9.70001 71.7998Z" fill="#EF648A"/>
</svg>
