<svg width="197" height="48" viewBox="0 0 197 48" fill="none" xmlns="http://www.w3.org/2000/svg">
<path d="M63.2136 29.552L65.3976 31.712L63.5256 33.536L61.2216 31.256C60.0376 31.912 58.6296 32.248 56.9976 32.264C54.5816 32.264 52.6296 31.488 51.1416 29.936C49.5416 28.24 48.7416 26.064 48.7416 23.408C48.7416 20.768 49.5416 18.592 51.1416 16.88C52.5976 15.328 54.5576 14.552 57.0216 14.552C59.4696 14.552 61.4216 15.328 62.8776 16.88C64.4776 18.608 65.2776 20.784 65.2776 23.408C65.2776 25.776 64.6456 27.76 63.3816 29.36L63.2136 29.552ZM60.8136 27.152L60.8856 27.008C61.4616 26.032 61.7496 24.824 61.7496 23.384C61.7496 21.512 61.2616 20.04 60.2856 18.968C59.4376 18.04 58.3496 17.576 57.0216 17.576C55.4856 17.576 54.2776 18.176 53.3976 19.376C52.6456 20.416 52.2696 21.76 52.2696 23.408C52.2696 25.312 52.7576 26.792 53.7336 27.848C54.5816 28.776 55.6776 29.24 57.0216 29.24C57.6616 29.24 58.2696 29.128 58.8456 28.904L56.8536 26.888L58.7256 25.064L60.8136 27.152ZM78.9703 32H75.6823V30.2C74.7863 31.576 73.5143 32.264 71.8663 32.264C70.4103 32.264 69.3063 31.832 68.5543 30.968C67.9143 30.216 67.5943 29.184 67.5943 27.872V19.28H70.9063V27.176C70.9063 28.696 71.6103 29.456 73.0183 29.456C73.8183 29.456 74.4583 29.232 74.9383 28.784C75.4343 28.336 75.6823 27.728 75.6823 26.96V19.28H78.9703V32ZM93.1689 26.504H84.6249C84.6729 27.528 84.8329 28.256 85.1049 28.688C85.5689 29.392 86.2969 29.744 87.2889 29.744C88.5209 29.744 89.3449 29.232 89.7609 28.208H93.0249C92.6569 29.456 91.9369 30.448 90.8649 31.184C89.8089 31.904 88.5689 32.264 87.1449 32.264C85.2089 32.264 83.7209 31.616 82.6809 30.32C81.7689 29.184 81.3129 27.688 81.3129 25.832C81.3129 23.576 81.9049 21.832 83.0889 20.6C84.1289 19.544 85.4969 19.016 87.1929 19.016C88.4889 19.016 89.6249 19.336 90.6009 19.976C91.5769 20.616 92.2729 21.512 92.6889 22.664C93.0249 23.56 93.1929 24.64 93.1929 25.904C93.1929 26.064 93.1849 26.264 93.1689 26.504ZM89.7369 24.32C89.5769 22.464 88.7209 21.536 87.1689 21.536C85.7129 21.536 84.8809 22.464 84.6729 24.32H89.7369ZM95.5112 19.28H98.8232V21.08C99.7192 19.704 100.983 19.016 102.615 19.016C104.071 19.016 105.175 19.448 105.927 20.312C106.567 21.08 106.887 22.12 106.887 23.432V32H103.599V24.104C103.599 22.584 102.887 21.824 101.463 21.824C100.663 21.824 100.023 22.056 99.5432 22.52C99.0632 22.968 98.8232 23.568 98.8232 24.32V32H95.5112V19.28ZM117.989 19.28H121.133V31.88C121.133 33.848 120.517 35.256 119.285 36.104C118.245 36.792 116.821 37.136 115.013 37.136C113.125 37.136 111.685 36.728 110.693 35.912C109.877 35.256 109.453 34.464 109.421 33.536H112.829C113.101 34.528 113.885 35.024 115.181 35.024C115.997 35.024 116.685 34.768 117.245 34.256C117.741 33.808 117.989 33.112 117.989 32.168V30.272C117.381 31.024 116.813 31.544 116.285 31.832C115.757 32.12 115.117 32.264 114.365 32.264C112.717 32.264 111.413 31.592 110.453 30.248C109.605 29.096 109.181 27.632 109.181 25.856C109.181 23.76 109.749 22.048 110.885 20.72C111.877 19.584 113.077 19.016 114.485 19.016C115.861 19.016 117.029 19.68 117.989 21.008V19.28ZM115.157 21.776C114.357 21.776 113.709 22.144 113.213 22.88C112.733 23.616 112.493 24.576 112.493 25.76C112.493 26.896 112.733 27.808 113.213 28.496C113.709 29.184 114.357 29.528 115.157 29.528C115.989 29.528 116.677 29.176 117.221 28.472C117.733 27.816 117.989 26.904 117.989 25.736C117.989 24.472 117.693 23.472 117.101 22.736C116.589 22.096 115.941 21.776 115.157 21.776ZM135.333 26.504H126.789C126.837 27.528 126.997 28.256 127.269 28.688C127.733 29.392 128.461 29.744 129.453 29.744C130.685 29.744 131.509 29.232 131.925 28.208H135.189C134.821 29.456 134.101 30.448 133.029 31.184C131.973 31.904 130.733 32.264 129.309 32.264C127.373 32.264 125.885 31.616 124.845 30.32C123.933 29.184 123.477 27.688 123.477 25.832C123.477 23.576 124.069 21.832 125.253 20.6C126.293 19.544 127.661 19.016 129.357 19.016C130.653 19.016 131.789 19.336 132.765 19.976C133.741 20.616 134.437 21.512 134.853 22.664C135.189 23.56 135.357 24.64 135.357 25.904C135.357 26.064 135.349 26.264 135.333 26.504ZM131.901 24.32C131.741 22.464 130.885 21.536 129.333 21.536C127.877 21.536 127.045 22.464 126.837 24.32H131.901ZM137.675 19.28H140.987V21.08C141.883 19.704 143.147 19.016 144.779 19.016C146.235 19.016 147.339 19.448 148.091 20.312C148.731 21.08 149.051 22.12 149.051 23.432V32H145.763V24.104C145.763 22.584 145.051 21.824 143.627 21.824C142.827 21.824 142.187 22.056 141.707 22.52C141.227 22.968 140.987 23.568 140.987 24.32V32H137.675V19.28ZM163.153 26.504H154.609C154.657 27.528 154.817 28.256 155.089 28.688C155.553 29.392 156.281 29.744 157.273 29.744C158.505 29.744 159.329 29.232 159.745 28.208H163.009C162.641 29.456 161.921 30.448 160.849 31.184C159.793 31.904 158.553 32.264 157.129 32.264C155.193 32.264 153.705 31.616 152.665 30.32C151.753 29.184 151.297 27.688 151.297 25.832C151.297 23.576 151.889 21.832 153.073 20.6C154.113 19.544 155.481 19.016 157.177 19.016C158.473 19.016 159.609 19.336 160.585 19.976C161.561 20.616 162.257 21.512 162.673 22.664C163.009 23.56 163.177 24.64 163.177 25.904C163.177 26.064 163.169 26.264 163.153 26.504ZM159.721 24.32C159.561 22.464 158.705 21.536 157.153 21.536C155.697 21.536 154.865 22.464 154.657 24.32H159.721ZM176.08 23.024H172.72C172.704 22.512 172.52 22.152 172.168 21.944C171.816 21.72 171.208 21.608 170.344 21.608C169.08 21.608 168.448 21.976 168.448 22.712C168.448 23.144 168.832 23.464 169.6 23.672L173.776 24.848C175.44 25.312 176.272 26.368 176.272 28.016C176.272 29.312 175.768 30.36 174.76 31.16C173.816 31.896 172.456 32.264 170.68 32.264C168.504 32.264 166.944 31.944 166 31.304C165.072 30.696 164.576 29.712 164.512 28.352H167.8C167.896 28.88 168.12 29.232 168.472 29.408C168.84 29.584 169.512 29.672 170.488 29.672C172.136 29.672 172.96 29.28 172.96 28.496C172.96 28.032 172.592 27.688 171.856 27.464L167.92 26.264C166.912 25.96 166.224 25.608 165.856 25.208C165.376 24.712 165.136 24.04 165.136 23.192C165.136 21.8 165.664 20.728 166.72 19.976C167.648 19.336 168.864 19.016 170.368 19.016C172.192 19.016 173.632 19.424 174.688 20.24C175.6 20.96 176.064 21.888 176.08 23.024ZM181.957 19.28V32H178.645V19.28H181.957ZM180.277 14.912C180.709 14.912 181.069 15.064 181.357 15.368C181.661 15.672 181.813 16.04 181.813 16.472C181.813 16.904 181.661 17.272 181.357 17.576C181.069 17.864 180.709 18.008 180.277 18.008C179.845 18.008 179.477 17.864 179.173 17.576C178.869 17.272 178.717 16.904 178.717 16.472C178.717 16.04 178.869 15.672 179.173 15.368C179.477 15.064 179.845 14.912 180.277 14.912ZM195.744 23.024H192.384C192.368 22.512 192.184 22.152 191.832 21.944C191.48 21.72 190.872 21.608 190.008 21.608C188.744 21.608 188.112 21.976 188.112 22.712C188.112 23.144 188.496 23.464 189.264 23.672L193.44 24.848C195.104 25.312 195.936 26.368 195.936 28.016C195.936 29.312 195.432 30.36 194.424 31.16C193.48 31.896 192.12 32.264 190.344 32.264C188.168 32.264 186.608 31.944 185.664 31.304C184.736 30.696 184.24 29.712 184.176 28.352H187.464C187.56 28.88 187.784 29.232 188.136 29.408C188.504 29.584 189.176 29.672 190.152 29.672C191.8 29.672 192.624 29.28 192.624 28.496C192.624 28.032 192.256 27.688 191.52 27.464L187.584 26.264C186.576 25.96 185.888 25.608 185.52 25.208C185.04 24.712 184.8 24.04 184.8 23.192C184.8 21.8 185.328 20.728 186.384 19.976C187.312 19.336 188.528 19.016 190.032 19.016C191.856 19.016 193.296 19.424 194.352 20.24C195.264 20.96 195.728 21.888 195.744 23.024Z" fill="white"/>
<path d="M9.38746 46.4876C6.4532 42.0352 5.97218 35.2627 8.1849 29.9325C11.6002 21.7176 19.6333 17.3908 29.9273 18.206C32.4286 18.3941 34.5451 18.7076 34.6894 18.8958C34.8337 19.0839 34.1603 21.0279 33.1982 23.2854L31.4665 27.3614L27.3778 26.9852C19.2485 26.2327 12.4179 29.6816 10.0128 35.7017C9.14695 37.8965 9.14695 43.164 10.0128 45.9232C10.8786 48.5569 10.7824 48.6197 9.38746 46.4876Z" fill="#EF648A"/>
<path d="M12.9952 45.5467C11.2154 39.8402 14.342 35.137 20.7397 33.7575C24.155 33.0677 29.0614 33.5066 29.0614 34.5727C29.0614 34.9489 28.7247 35.9523 28.2918 36.7048C27.6184 37.9589 27.1854 38.0844 22.9043 38.0844C19.1042 38.0844 17.9497 38.3352 16.6991 39.3385C14.4382 41.0944 13.4762 43.2892 13.8129 45.9229C14.1496 48.8075 13.9572 48.6821 12.9952 45.5467Z" fill="#EF648A"/>
<path d="M4.38487 44.8569C1.88353 41.596 0.729073 38.4606 0.199944 33.8202C-0.665902 25.668 1.2582 18.9582 6.40518 12.3738C11.3597 5.97753 18.3827 1.83876 26.6083 0.396463C30.4565 -0.293332 37.4794 -0.0424973 40.7023 0.835424L42.0011 1.21168L40.6061 4.78607C38.1048 11.1823 38.8263 10.7434 30.697 10.5553C24.6361 10.4926 22.9525 10.618 19.922 11.7467C8.32928 16.0109 1.40251 27.3612 3.51902 38.5233C3.85574 40.1537 4.76969 42.8502 5.53933 44.5433C6.30897 46.1738 6.79 47.4906 6.69379 47.4906C6.54948 47.4906 5.49123 46.2992 4.38487 44.8569Z" fill="#EF648A"/>
</svg>
