<svg width="197" height="64" viewBox="0 0 197 64" fill="none" xmlns="http://www.w3.org/2000/svg">
<path d="M63.2136 37.552L65.3976 39.712L63.5256 41.536L61.2216 39.256C60.0376 39.912 58.6296 40.248 56.9976 40.264C54.5816 40.264 52.6296 39.488 51.1416 37.936C49.5416 36.24 48.7416 34.064 48.7416 31.408C48.7416 28.768 49.5416 26.592 51.1416 24.88C52.5976 23.328 54.5576 22.552 57.0216 22.552C59.4696 22.552 61.4216 23.328 62.8776 24.88C64.4776 26.608 65.2776 28.784 65.2776 31.408C65.2776 33.776 64.6456 35.76 63.3816 37.36L63.2136 37.552ZM60.8136 35.152L60.8856 35.008C61.4616 34.032 61.7496 32.824 61.7496 31.384C61.7496 29.512 61.2616 28.04 60.2856 26.968C59.4376 26.04 58.3496 25.576 57.0216 25.576C55.4856 25.576 54.2776 26.176 53.3976 27.376C52.6456 28.416 52.2696 29.76 52.2696 31.408C52.2696 33.312 52.7576 34.792 53.7336 35.848C54.5816 36.776 55.6776 37.24 57.0216 37.24C57.6616 37.24 58.2696 37.128 58.8456 36.904L56.8536 34.888L58.7256 33.064L60.8136 35.152ZM78.9703 40H75.6823V38.2C74.7863 39.576 73.5143 40.264 71.8663 40.264C70.4103 40.264 69.3063 39.832 68.5543 38.968C67.9143 38.216 67.5943 37.184 67.5943 35.872V27.28H70.9063V35.176C70.9063 36.696 71.6103 37.456 73.0183 37.456C73.8183 37.456 74.4583 37.232 74.9383 36.784C75.4343 36.336 75.6823 35.728 75.6823 34.96V27.28H78.9703V40ZM93.1689 34.504H84.6249C84.6729 35.528 84.8329 36.256 85.1049 36.688C85.5689 37.392 86.2969 37.744 87.2889 37.744C88.5209 37.744 89.3449 37.232 89.7609 36.208H93.0249C92.6569 37.456 91.9369 38.448 90.8649 39.184C89.8089 39.904 88.5689 40.264 87.1449 40.264C85.2089 40.264 83.7209 39.616 82.6809 38.32C81.7689 37.184 81.3129 35.688 81.3129 33.832C81.3129 31.576 81.9049 29.832 83.0889 28.6C84.1289 27.544 85.4969 27.016 87.1929 27.016C88.4889 27.016 89.6249 27.336 90.6009 27.976C91.5769 28.616 92.2729 29.512 92.6889 30.664C93.0249 31.56 93.1929 32.64 93.1929 33.904C93.1929 34.064 93.1849 34.264 93.1689 34.504ZM89.7369 32.32C89.5769 30.464 88.7209 29.536 87.1689 29.536C85.7129 29.536 84.8809 30.464 84.6729 32.32H89.7369ZM95.5112 27.28H98.8232V29.08C99.7192 27.704 100.983 27.016 102.615 27.016C104.071 27.016 105.175 27.448 105.927 28.312C106.567 29.08 106.887 30.12 106.887 31.432V40H103.599V32.104C103.599 30.584 102.887 29.824 101.463 29.824C100.663 29.824 100.023 30.056 99.5432 30.52C99.0632 30.968 98.8232 31.568 98.8232 32.32V40H95.5112V27.28ZM117.989 27.28H121.133V39.88C121.133 41.848 120.517 43.256 119.285 44.104C118.245 44.792 116.821 45.136 115.013 45.136C113.125 45.136 111.685 44.728 110.693 43.912C109.877 43.256 109.453 42.464 109.421 41.536H112.829C113.101 42.528 113.885 43.024 115.181 43.024C115.997 43.024 116.685 42.768 117.245 42.256C117.741 41.808 117.989 41.112 117.989 40.168V38.272C117.381 39.024 116.813 39.544 116.285 39.832C115.757 40.12 115.117 40.264 114.365 40.264C112.717 40.264 111.413 39.592 110.453 38.248C109.605 37.096 109.181 35.632 109.181 33.856C109.181 31.76 109.749 30.048 110.885 28.72C111.877 27.584 113.077 27.016 114.485 27.016C115.861 27.016 117.029 27.68 117.989 29.008V27.28ZM115.157 29.776C114.357 29.776 113.709 30.144 113.213 30.88C112.733 31.616 112.493 32.576 112.493 33.76C112.493 34.896 112.733 35.808 113.213 36.496C113.709 37.184 114.357 37.528 115.157 37.528C115.989 37.528 116.677 37.176 117.221 36.472C117.733 35.816 117.989 34.904 117.989 33.736C117.989 32.472 117.693 31.472 117.101 30.736C116.589 30.096 115.941 29.776 115.157 29.776ZM135.333 34.504H126.789C126.837 35.528 126.997 36.256 127.269 36.688C127.733 37.392 128.461 37.744 129.453 37.744C130.685 37.744 131.509 37.232 131.925 36.208H135.189C134.821 37.456 134.101 38.448 133.029 39.184C131.973 39.904 130.733 40.264 129.309 40.264C127.373 40.264 125.885 39.616 124.845 38.32C123.933 37.184 123.477 35.688 123.477 33.832C123.477 31.576 124.069 29.832 125.253 28.6C126.293 27.544 127.661 27.016 129.357 27.016C130.653 27.016 131.789 27.336 132.765 27.976C133.741 28.616 134.437 29.512 134.853 30.664C135.189 31.56 135.357 32.64 135.357 33.904C135.357 34.064 135.349 34.264 135.333 34.504ZM131.901 32.32C131.741 30.464 130.885 29.536 129.333 29.536C127.877 29.536 127.045 30.464 126.837 32.32H131.901ZM137.675 27.28H140.987V29.08C141.883 27.704 143.147 27.016 144.779 27.016C146.235 27.016 147.339 27.448 148.091 28.312C148.731 29.08 149.051 30.12 149.051 31.432V40H145.763V32.104C145.763 30.584 145.051 29.824 143.627 29.824C142.827 29.824 142.187 30.056 141.707 30.52C141.227 30.968 140.987 31.568 140.987 32.32V40H137.675V27.28ZM163.153 34.504H154.609C154.657 35.528 154.817 36.256 155.089 36.688C155.553 37.392 156.281 37.744 157.273 37.744C158.505 37.744 159.329 37.232 159.745 36.208H163.009C162.641 37.456 161.921 38.448 160.849 39.184C159.793 39.904 158.553 40.264 157.129 40.264C155.193 40.264 153.705 39.616 152.665 38.32C151.753 37.184 151.297 35.688 151.297 33.832C151.297 31.576 151.889 29.832 153.073 28.6C154.113 27.544 155.481 27.016 157.177 27.016C158.473 27.016 159.609 27.336 160.585 27.976C161.561 28.616 162.257 29.512 162.673 30.664C163.009 31.56 163.177 32.64 163.177 33.904C163.177 34.064 163.169 34.264 163.153 34.504ZM159.721 32.32C159.561 30.464 158.705 29.536 157.153 29.536C155.697 29.536 154.865 30.464 154.657 32.32H159.721ZM176.08 31.024H172.72C172.704 30.512 172.52 30.152 172.168 29.944C171.816 29.72 171.208 29.608 170.344 29.608C169.08 29.608 168.448 29.976 168.448 30.712C168.448 31.144 168.832 31.464 169.6 31.672L173.776 32.848C175.44 33.312 176.272 34.368 176.272 36.016C176.272 37.312 175.768 38.36 174.76 39.16C173.816 39.896 172.456 40.264 170.68 40.264C168.504 40.264 166.944 39.944 166 39.304C165.072 38.696 164.576 37.712 164.512 36.352H167.8C167.896 36.88 168.12 37.232 168.472 37.408C168.84 37.584 169.512 37.672 170.488 37.672C172.136 37.672 172.96 37.28 172.96 36.496C172.96 36.032 172.592 35.688 171.856 35.464L167.92 34.264C166.912 33.96 166.224 33.608 165.856 33.208C165.376 32.712 165.136 32.04 165.136 31.192C165.136 29.8 165.664 28.728 166.72 27.976C167.648 27.336 168.864 27.016 170.368 27.016C172.192 27.016 173.632 27.424 174.688 28.24C175.6 28.96 176.064 29.888 176.08 31.024ZM181.957 27.28V40H178.645V27.28H181.957ZM180.277 22.912C180.709 22.912 181.069 23.064 181.357 23.368C181.661 23.672 181.813 24.04 181.813 24.472C181.813 24.904 181.661 25.272 181.357 25.576C181.069 25.864 180.709 26.008 180.277 26.008C179.845 26.008 179.477 25.864 179.173 25.576C178.869 25.272 178.717 24.904 178.717 24.472C178.717 24.04 178.869 23.672 179.173 23.368C179.477 23.064 179.845 22.912 180.277 22.912ZM195.744 31.024H192.384C192.368 30.512 192.184 30.152 191.832 29.944C191.48 29.72 190.872 29.608 190.008 29.608C188.744 29.608 188.112 29.976 188.112 30.712C188.112 31.144 188.496 31.464 189.264 31.672L193.44 32.848C195.104 33.312 195.936 34.368 195.936 36.016C195.936 37.312 195.432 38.36 194.424 39.16C193.48 39.896 192.12 40.264 190.344 40.264C188.168 40.264 186.608 39.944 185.664 39.304C184.736 38.696 184.24 37.712 184.176 36.352H187.464C187.56 36.88 187.784 37.232 188.136 37.408C188.504 37.584 189.176 37.672 190.152 37.672C191.8 37.672 192.624 37.28 192.624 36.496C192.624 36.032 192.256 35.688 191.52 35.464L187.584 34.264C186.576 33.96 185.888 33.608 185.52 33.208C185.04 32.712 184.8 32.04 184.8 31.192C184.8 29.8 185.328 28.728 186.384 27.976C187.312 27.336 188.528 27.016 190.032 27.016C191.856 27.016 193.296 27.424 194.352 28.24C195.264 28.96 195.728 29.888 195.744 31.024Z" fill="black" fill-opacity="0.76"/>
<path d="M9.38752 54.4876C6.45327 50.0352 5.97224 43.2627 8.18496 37.9325C11.6002 29.7176 19.6334 25.3908 29.9273 26.206C32.4286 26.3941 34.5452 26.7076 34.6895 26.8958C34.8338 27.0839 34.1603 29.0279 33.1983 31.2854L31.4666 35.3614L27.3779 34.9852C19.2485 34.2327 12.418 37.6816 10.0129 43.7017C9.14701 45.8965 9.14701 51.164 10.0129 53.9232C10.8787 56.5569 10.7825 56.6197 9.38752 54.4876Z" fill="#EF648A"/>
<path d="M12.9952 53.5467C11.2154 47.8402 14.3421 43.137 20.7397 41.7575C24.155 41.0677 29.0615 41.5066 29.0615 42.5727C29.0615 42.9489 28.7247 43.9523 28.2918 44.7048C27.6184 45.9589 27.1855 46.0844 22.9043 46.0844C19.1042 46.0844 17.9498 46.3352 16.6991 47.3385C14.4383 49.0944 13.4762 51.2892 13.8129 53.9229C14.1497 56.8075 13.9573 56.6821 12.9952 53.5467Z" fill="#EF648A"/>
<path d="M4.38487 52.8569C1.88353 49.596 0.729073 46.4606 0.199944 41.8202C-0.665902 33.668 1.2582 26.9582 6.40518 20.3738C11.3597 13.9775 18.3827 9.83876 26.6083 8.39646C30.4565 7.70667 37.4794 7.9575 40.7023 8.83542L42.0011 9.21168L40.6061 12.7861C38.1048 19.1823 38.8263 18.7434 30.697 18.5553C24.6361 18.4926 22.9525 18.618 19.922 19.7467C8.32928 24.0109 1.40251 35.3612 3.51902 46.5233C3.85574 48.1537 4.76969 50.8502 5.53933 52.5433C6.30897 54.1738 6.79 55.4906 6.69379 55.4906C6.54948 55.4906 5.49123 54.2992 4.38487 52.8569Z" fill="#EF648A"/>
</svg>
